<svg width="137" height="23" viewBox="0 0 137 23" fill="none" xmlns="http://www.w3.org/2000/svg">
<path d="M0 22.657V0H14.6871V3.4406H4.15313V9.59163H13.6796V13.0322H4.15313V22.657H0Z" fill="white"/>
<path d="M24.5298 22.9889C22.8506 22.9889 21.3953 22.6239 20.1639 21.8937C18.9325 21.1635 17.9773 20.1421 17.2982 18.8292C16.6265 17.5164 16.2907 15.9824 16.2907 14.227C16.2907 12.4717 16.6265 10.9339 17.2982 9.61376C17.9773 8.29357 18.9325 7.2684 20.1639 6.53824C21.3953 5.80808 22.8506 5.443 24.5298 5.443C26.2089 5.443 27.6642 5.80808 28.8956 6.53824C30.127 7.2684 31.0785 8.29357 31.7501 9.61376C32.4293 10.9339 32.7688 12.4717 32.7688 14.227C32.7688 15.9824 32.4293 17.5164 31.7501 18.8292C31.0785 20.1421 30.127 21.1635 28.8956 21.8937C27.6642 22.6239 26.2089 22.9889 24.5298 22.9889ZM24.5521 19.7807C25.4626 19.7807 26.2238 19.5336 26.8358 19.0394C27.4478 18.5379 27.903 17.8668 28.2015 17.026C28.5075 16.1852 28.6605 15.2485 28.6605 14.216C28.6605 13.176 28.5075 12.2357 28.2015 11.3949C27.903 10.5467 27.4478 9.87189 26.8358 9.37037C26.2238 8.86885 25.4626 8.61809 24.5521 8.61809C23.6193 8.61809 22.8431 8.86885 22.2237 9.37037C21.6117 9.87189 21.1528 10.5467 20.8468 11.3949C20.5483 12.2357 20.399 13.176 20.399 14.216C20.399 15.2485 20.5483 16.1852 20.8468 17.026C21.1528 17.8668 21.6117 18.5379 22.2237 19.0394C22.8431 19.5336 23.6193 19.7807 24.5521 19.7807Z" fill="white"/>
<path d="M43.7086 22.9889C42.0294 22.9889 40.5741 22.6239 39.3428 21.8937C38.1114 21.1635 37.1561 20.1421 36.477 18.8292C35.8053 17.5164 35.4695 15.9824 35.4695 14.227C35.4695 12.4717 35.8053 10.9339 36.477 9.61376C37.1561 8.29357 38.1114 7.2684 39.3428 6.53824C40.5741 5.80808 42.0294 5.443 43.7086 5.443C45.3877 5.443 46.843 5.80808 48.0744 6.53824C49.3058 7.2684 50.2573 8.29357 50.929 9.61376C51.6081 10.9339 51.9477 12.4717 51.9477 14.227C51.9477 15.9824 51.6081 17.5164 50.929 18.8292C50.2573 20.1421 49.3058 21.1635 48.0744 21.8937C46.843 22.6239 45.3877 22.9889 43.7086 22.9889ZM43.731 19.7807C44.6414 19.7807 45.4027 19.5336 46.0146 19.0394C46.6266 18.5379 47.0818 17.8668 47.3803 17.026C47.6863 16.1852 47.8393 15.2485 47.8393 14.216C47.8393 13.176 47.6863 12.2357 47.3803 11.3949C47.0818 10.5467 46.6266 9.87189 46.0146 9.37037C45.4027 8.86885 44.6414 8.61809 43.731 8.61809C42.7981 8.61809 42.022 8.86885 41.4025 9.37037C40.7906 9.87189 40.3316 10.5467 40.0256 11.3949C39.7271 12.2357 39.5778 13.176 39.5778 14.216C39.5778 15.2485 39.7271 16.1852 40.0256 17.026C40.3316 17.8668 40.7906 18.5379 41.4025 19.0394C42.022 19.5336 42.7981 19.7807 43.731 19.7807Z" fill="white"/>
<path d="M61.768 22.9557C60.4172 22.9557 59.2082 22.6128 58.141 21.9269C57.0738 21.241 56.2305 20.2453 55.611 18.9399C54.9916 17.6344 54.6819 16.0487 54.6819 14.1828C54.6819 12.2947 54.9953 10.7016 55.6222 9.40356C56.2566 8.09813 57.1111 7.11352 58.1858 6.44974C59.2604 5.77858 60.4582 5.443 61.7792 5.443C62.7867 5.443 63.615 5.61263 64.2643 5.9519C64.9136 6.28379 65.4285 6.68575 65.8091 7.15777C66.1898 7.62242 66.4845 8.06125 66.6935 8.47427H66.8614V0H70.925V22.657H66.9398V19.9798H66.6935C66.4845 20.3928 66.1823 20.8317 65.7868 21.2963C65.3912 21.7536 64.8688 22.1445 64.2195 22.469C63.5703 22.7935 62.7531 22.9557 61.768 22.9557ZM62.8986 19.67C63.7568 19.67 64.4882 19.4414 65.0927 18.9841C65.6972 18.5195 66.1562 17.8741 66.4696 17.0481C66.7831 16.2221 66.9398 15.2596 66.9398 14.1607C66.9398 13.0617 66.7831 12.1066 66.4696 11.2953C66.1636 10.484 65.7084 9.85346 65.1039 9.40356C64.5069 8.95366 63.7718 8.72872 62.8986 8.72872C61.9956 8.72872 61.2418 8.96104 60.6373 9.42569C60.0328 9.89033 59.5776 10.532 59.2716 11.3507C58.9656 12.1693 58.8126 13.106 58.8126 14.1607C58.8126 15.2227 58.9656 16.1704 59.2716 17.0038C59.5851 17.8299 60.044 18.4826 60.6485 18.962C61.2605 19.434 62.0105 19.67 62.8986 19.67Z" fill="white"/>
<path d="M75.4223 22.657V0H79.5755V10.4103H79.8553L88.7997 0H93.8707L85.0048 10.1669L93.9491 22.657H88.9564L82.1166 12.9437L79.5755 15.9086V22.657H75.4223Z" fill="white"/>
<path d="M101.525 23C100.435 23 99.4539 22.8082 98.5808 22.4247C97.7151 22.0338 97.0285 21.4586 96.521 20.6989C96.021 19.9392 95.771 19.0026 95.771 17.8889C95.771 16.9301 95.9501 16.1372 96.3083 15.5103C96.6665 14.8834 97.1554 14.3819 97.7748 14.0058C98.3942 13.6296 99.092 13.3457 99.8681 13.1539C100.652 12.9548 101.461 12.811 102.297 12.7225C103.305 12.6192 104.122 12.527 104.749 12.4459C105.376 12.3574 105.831 12.2246 106.115 12.0476C106.406 11.8632 106.551 11.5793 106.551 11.1958V11.1294C106.551 10.296 106.301 9.65063 105.801 9.19336C105.301 8.73609 104.581 8.50746 103.641 8.50746C102.648 8.50746 101.861 8.72134 101.279 9.14911C100.704 9.57688 100.316 10.0821 100.114 10.6647L96.3307 10.1337C96.6292 9.10117 97.1218 8.23826 97.8084 7.54497C98.495 6.84432 99.3345 6.32067 100.327 5.97403C101.32 5.62001 102.417 5.443 103.618 5.443C104.447 5.443 105.271 5.53888 106.092 5.73064C106.913 5.9224 107.663 6.23954 108.342 6.68206C109.021 7.1172 109.566 7.71092 109.977 8.4632C110.395 9.21549 110.604 10.1558 110.604 11.2843V22.657H106.708V20.3228H106.574C106.327 20.7948 105.98 21.2373 105.533 21.6503C105.092 22.056 104.536 22.3842 103.865 22.6349C103.2 22.8783 102.42 23 101.525 23ZM102.577 20.0572C103.391 20.0572 104.096 19.8987 104.693 19.5815C105.29 19.257 105.749 18.8292 106.07 18.2982C106.398 17.7672 106.562 17.1882 106.562 16.5613V14.5589C106.436 14.6622 106.219 14.7581 105.913 14.8466C105.615 14.9351 105.279 15.0125 104.906 15.0789C104.532 15.1453 104.163 15.2043 103.797 15.2559C103.432 15.3075 103.115 15.3518 102.846 15.3886C102.241 15.4698 101.7 15.6025 101.223 15.7869C100.745 15.9713 100.368 16.2294 100.092 16.5613C99.8159 16.8858 99.6778 17.3062 99.6778 17.8225C99.6778 18.56 99.9502 19.1169 100.495 19.493C101.04 19.8692 101.734 20.0572 102.577 20.0572Z" fill="white"/>
<path d="M114.678 22.657V5.66426H118.608V8.49639H118.787C119.1 7.51547 119.637 6.7595 120.399 6.22848C121.167 5.69008 122.044 5.42088 123.029 5.42088C123.253 5.42088 123.503 5.43194 123.779 5.45406C124.063 5.46882 124.298 5.49463 124.485 5.53151V9.21549C124.313 9.15649 124.041 9.10486 123.667 9.06061C123.302 9.00898 122.947 8.98317 122.604 8.98317C121.865 8.98317 121.201 9.14173 120.611 9.45887C120.029 9.76864 119.57 10.2001 119.234 10.7532C118.899 11.3064 118.731 11.9444 118.731 12.6671V22.657H114.678Z" fill="white"/>
<path d="M136.687 5.66426V8.7619H126.802V5.66426H136.687ZM129.242 1.59307H133.295V17.5459C133.295 18.0843 133.377 18.4974 133.541 18.785C133.713 19.0653 133.936 19.257 134.213 19.3603C134.489 19.4635 134.795 19.5152 135.131 19.5152C135.384 19.5152 135.616 19.4967 135.825 19.4598C136.041 19.423 136.205 19.3898 136.317 19.3603L137 22.4911C136.784 22.5649 136.474 22.646 136.071 22.7345C135.675 22.823 135.19 22.8746 134.616 22.8894C133.601 22.9189 132.686 22.7677 131.873 22.4358C131.06 22.0965 130.414 21.5729 129.936 20.8648C129.466 20.1568 129.235 19.2718 129.242 18.2097V1.59307Z" fill="white"/>
</svg>
